<svg id="Layer_1" data-name="Layer 1" xmlns="http://www.w3.org/2000/svg" viewBox="0 0 708.66 708.66"><defs><style>.cls-1{fill:none;stroke:#0c0b0b;stroke-width:16px;}.cls-1,.cls-2{stroke-miterlimit:10;}.cls-2{stroke:#000;stroke-width:5.5px;}</style></defs><path class="cls-1" d="M223.06,492s90,40.06,170.5,5.53c0,0,65.5-20.53,97.5-10.53,0,0,2-123-14-146,0,0-85-8-125,6,0,0-79.55,19-125.27,19Z"/><path class="cls-1" d="M233.56,366s-186,2-150-132.29c0,0,76-150.83,150-53.54,0,0-85.17-124.55,74.42-131.17,0,0,137.41-6.61,144,113,0,0,55.33-122.22,154-31.34,0,0,102.62,118.35-121.38,217.06"/><polygon class="cls-2" points="232.17 184.18 249.06 192.99 239.07 178.94 232.17 184.18"/></svg>
